<svg width="67" height="58" viewBox="0 0 67 58" fill="none" xmlns="http://www.w3.org/2000/svg">
<path d="M60.5094 57.5527H6.49062C2.91816 57.5527 0 54.691 0 51.159V6.84102C0 3.30898 2.91816 0.447266 6.49062 0.447266H41.9404C42.9611 0.447266 43.7855 1.25937 43.7855 2.26484C43.7855 3.27031 42.9611 4.08242 41.9404 4.08242H6.49062C4.94648 4.08242 3.69023 5.31992 3.69023 6.84102V51.159C3.69023 52.6801 4.94648 53.9176 6.49062 53.9176H60.5094C62.0535 53.9176 63.3098 52.6801 63.3098 51.159V6.84102C63.3098 5.31992 62.0535 4.08242 60.5094 4.08242H52.5793C51.5586 4.08242 50.7342 3.27031 50.7342 2.26484C50.7342 1.25937 51.5586 0.447266 52.5793 0.447266H60.5094C64.0949 0.447266 67 3.32187 67 6.84102V51.159C67 54.691 64.0818 57.5527 60.5094 57.5527Z" fill="#2D527C"/>
<path d="M53.8748 49.5348H18.1371C17.1164 49.5348 16.292 48.7227 16.292 47.7172C16.292 46.7117 17.1164 45.8996 18.1371 45.8996H53.8748C54.5815 45.8996 55.1572 45.3324 55.1572 44.6363V13.3766C55.1572 12.6805 54.5815 12.1133 53.8748 12.1133H18.1371C17.1164 12.1133 16.292 11.3012 16.292 10.2957C16.292 9.29023 17.1164 8.47812 18.1371 8.47812H53.8748C56.6229 8.47812 58.8605 10.6824 58.8605 13.3895V44.6363C58.8605 47.3305 56.6229 49.5348 53.8748 49.5348Z" fill="#2D527C"/>
<path d="M9.9846 49.5348C8.9639 49.5348 8.13949 48.7226 8.13949 47.7172V10.2828C8.13949 9.27734 8.9639 8.46523 9.9846 8.46523C11.0053 8.46523 11.8297 9.27734 11.8297 10.2828V47.7172C11.8428 48.7226 11.0053 49.5348 9.9846 49.5348Z" fill="#2D527C"/>
<path d="M42.6733 43.502C34.56 43.502 27.9516 36.9922 27.9516 29C27.9516 21.0078 34.56 14.498 42.6733 14.498C50.7865 14.498 57.3949 21.0078 57.3949 29C57.3949 36.9922 50.7865 43.502 42.6733 43.502ZM42.6733 18.1332C36.5883 18.1332 31.6418 23.0059 31.6418 29C31.6418 34.9941 36.5883 39.8668 42.6733 39.8668C48.7582 39.8668 53.7047 34.9941 53.7047 29C53.7047 23.0059 48.7582 18.1332 42.6733 18.1332ZM42.6733 35.5613C38.9961 35.5613 36.0125 32.6223 36.0125 29C36.0125 25.3777 38.9961 22.4387 42.6733 22.4387C46.3504 22.4387 49.334 25.3777 49.334 29C49.334 32.6223 46.3504 35.5613 42.6733 35.5613ZM42.6733 26.0738C41.0375 26.0738 39.7028 27.3887 39.7028 29C39.7028 30.6113 41.0375 31.9262 42.6733 31.9262C44.309 31.9262 45.6438 30.6113 45.6438 29C45.6438 27.3887 44.309 26.0738 42.6733 26.0738Z" fill="#F0BF5F"/>
<path d="M18.124 35.7805H9.98454V41.6715H18.124V35.7805Z" fill="#CEE8FA"/>
<path d="M18.1371 43.4891H9.9846C8.9639 43.4891 8.13949 42.677 8.13949 41.6715V35.7805C8.13949 34.775 8.9639 33.9629 9.9846 33.9629H18.1241C19.1448 33.9629 19.9692 34.775 19.9692 35.7805V41.6715C19.9823 42.677 19.1578 43.4891 18.1371 43.4891ZM11.8428 39.8539H16.292V37.598H11.8428V39.8539Z" fill="#2D527C"/>
<path d="M18.124 16.3285H9.98454V22.2195H18.124V16.3285Z" fill="#CEE8FA"/>
<path d="M18.1371 24.0371H9.9846C8.9639 24.0371 8.13949 23.225 8.13949 22.2195V16.3285C8.13949 15.323 8.9639 14.5109 9.9846 14.5109H18.1241C19.1448 14.5109 19.9692 15.323 19.9692 16.3285V22.2195C19.9823 23.225 19.1578 24.0371 18.1371 24.0371ZM11.8428 20.402H16.292V18.1461H11.8428V20.402Z" fill="#2D527C"/>
<path d="M33.9842 39.377C33.5131 39.377 33.042 39.1965 32.6756 38.8484C31.9559 38.1395 31.9559 36.9793 32.6756 36.2703L37.9623 31.0625C38.6821 30.3535 39.8598 30.3535 40.5795 31.0625C41.2993 31.7715 41.2993 32.9316 40.5795 33.6406L35.2928 38.8484C34.9264 39.1965 34.4553 39.377 33.9842 39.377Z" fill="#F0BF5F"/>
<path d="M46.4159 27.1309C45.9448 27.1309 45.4737 26.9504 45.1073 26.6023C44.3875 25.8934 44.3875 24.7332 45.1073 24.0242L50.0537 19.1516C50.7735 18.4426 51.9512 18.4426 52.6709 19.1516C53.3907 19.8605 53.3907 21.0207 52.6709 21.7297L47.7245 26.6023C47.3711 26.9504 46.887 27.1309 46.4159 27.1309Z" fill="#F0BF5F"/>
<path d="M38.8391 27.0406C38.368 27.0406 37.8969 26.8602 37.5305 26.5121L32.6756 21.7297C31.9559 21.0207 31.9559 19.8605 32.6756 19.1516C33.3953 18.4426 34.5731 18.4426 35.2928 19.1516L40.1477 23.934C40.8674 24.643 40.8674 25.8031 40.1477 26.5121C39.7944 26.873 39.3102 27.0406 38.8391 27.0406Z" fill="#F0BF5F"/>
<path d="M51.3624 39.377C50.8913 39.377 50.4202 39.1965 50.0538 38.8484L45.1334 34.0016C44.4137 33.2926 44.4137 32.1324 45.1334 31.4234C45.8532 30.7145 47.0309 30.7145 47.7506 31.4234L52.6709 36.2703C53.3907 36.9793 53.3907 38.1395 52.6709 38.8484C52.3045 39.1965 51.8334 39.377 51.3624 39.377Z" fill="#F0BF5F"/>
</svg>
